<svg xmlns="http://www.w3.org/2000/svg" xmlns:xlink="http://www.w3.org/1999/xlink" id="Layer_1" x="0" y="0" version="1.1" viewBox="0 0 80.9 104.6" xml:space="preserve" style="enable-background:new 0 0 80.9 104.6"><style type="text/css">.st0{fill:url(#SVGID_1_)}.st1{fill:url(#SVGID_2_)}.st2{fill:url(#SVGID_3_)}.st3{fill:url(#SVGID_4_)}.st4{fill:url(#SVGID_5_)}.st5{fill:url(#SVGID_6_)}.st6{fill:url(#SVGID_7_)}.st7{fill:url(#SVGID_8_)}.st8{fill:url(#SVGID_9_)}.st9{fill:url(#SVGID_10_)}</style><title>Artboard 1</title><g><linearGradient id="SVGID_1_" x1="-8.929" x2="45.74" y1="18.156" y2="90.704" gradientUnits="userSpaceOnUse"><stop offset="0" style="stop-color:#00365a"/><stop offset=".25" style="stop-color:#00365a"/><stop offset=".571" style="stop-color:#054e80"/><stop offset=".735" style="stop-color:#075b93"/><stop offset=".839" style="stop-color:#054e80"/><stop offset="1" style="stop-color:#054e80"/></linearGradient><path d="M27.5,79.6l7.4,13.8C40.8,89.8,46.5,86,52.1,82l-23.2-4.3C27.5,77.5,26.9,78.3,27.5,79.6z" class="st0"/><linearGradient id="SVGID_2_" x1="-28.194" x2="24.221" y1="35.617" y2="105.173" gradientUnits="userSpaceOnUse"><stop offset="0" style="stop-color:#00365a"/><stop offset=".25" style="stop-color:#00365a"/><stop offset=".571" style="stop-color:#054e80"/><stop offset=".735" style="stop-color:#075b93"/><stop offset=".839" style="stop-color:#054e80"/><stop offset="1" style="stop-color:#054e80"/></linearGradient><path d="M19.3,76c-0.3-0.1-1.4,0.6-2.6,1.4l-16.1,12c-1.6,12.2,8.5,19.1,22.1,11.1c2.6-1.4,5.2-2.9,7.7-4.4l-9.4-17.7 C20.4,77.1,19.6,76.1,19.3,76z" class="st1"/><linearGradient id="SVGID_3_" x1="29.276" x2="80.453" y1="-1.955" y2="65.959" gradientUnits="userSpaceOnUse"><stop offset="0" style="stop-color:#00365a"/><stop offset=".25" style="stop-color:#00365a"/><stop offset=".571" style="stop-color:#054e80"/><stop offset=".735" style="stop-color:#075b93"/><stop offset=".839" style="stop-color:#054e80"/><stop offset="1" style="stop-color:#054e80"/></linearGradient><path d="M65.3,41.4l-9.5,7c-1.1,0.8-1.3,2.4-0.2,3.4l15.9,15.9c10-7.4,11.3-17.5,4.8-25.9l-6.4-1.4 C68.5,40.1,66.5,40.5,65.3,41.4z" class="st2"/><linearGradient id="SVGID_4_" x1="3.886" x2="55.914" y1="14.436" y2="83.48" gradientUnits="userSpaceOnUse"><stop offset="0" style="stop-color:#00365a"/><stop offset=".25" style="stop-color:#00365a"/><stop offset=".571" style="stop-color:#054e80"/><stop offset=".735" style="stop-color:#075b93"/><stop offset=".839" style="stop-color:#054e80"/><stop offset="1" style="stop-color:#054e80"/></linearGradient><path d="M51.4,54.9c-1-1-2.8-1.1-3.9-0.3L26.6,70.2c-1.1,0.8-0.9,1.8,0.5,2l30.9,5.7c3.2-2.3,6.3-4.7,9.4-7.1 L51.4,54.9z" class="st3"/><linearGradient id="SVGID_5_" x1="21.779" x2="74.849" y1=".522" y2="70.95" gradientUnits="userSpaceOnUse"><stop offset="0" style="stop-color:#00365a"/><stop offset=".25" style="stop-color:#00365a"/><stop offset=".571" style="stop-color:#054e80"/><stop offset=".735" style="stop-color:#075b93"/><stop offset=".839" style="stop-color:#054e80"/><stop offset="1" style="stop-color:#054e80"/></linearGradient><path d="M58.2,37.8l-18.5-4c-1.4-0.3-1.7,0.3-0.7,1.3l9.3,9.3c1,1,2.8,1.1,3.9,0.3l6.4-4.8 C59.8,39.1,59.6,38.1,58.2,37.8z" class="st4"/><linearGradient id="SVGID_6_" x1="4.568" x2="57.092" y1="13.524" y2="83.226" gradientUnits="userSpaceOnUse"><stop offset="0" style="stop-color:#00365a"/><stop offset=".25" style="stop-color:#00365a"/><stop offset=".571" style="stop-color:#054e80"/><stop offset=".735" style="stop-color:#075b93"/><stop offset=".839" style="stop-color:#054e80"/><stop offset="1" style="stop-color:#054e80"/></linearGradient><path d="M21.8,25.2L2.3,5.7c-2.4,4-2.5,10,0.6,16.8l18.1,3.9C22.4,26.8,22.8,26.2,21.8,25.2z" class="st5"/><linearGradient id="SVGID_7_" x1="-17.2" x2="34.443" y1="28.73" y2="97.263" gradientUnits="userSpaceOnUse"><stop offset="0" style="stop-color:#00365a"/><stop offset=".25" style="stop-color:#00365a"/><stop offset=".571" style="stop-color:#054e80"/><stop offset=".735" style="stop-color:#075b93"/><stop offset=".839" style="stop-color:#054e80"/><stop offset="1" style="stop-color:#054e80"/></linearGradient><path d="M15.5,68L7.1,52c0,5.4-0.4,10.9-1.1,16.2l8.3,1.5C15.6,70.1,16.2,69.2,15.5,68z" class="st6"/><linearGradient id="SVGID_8_" x1="23.14" x2="76.637" y1=".07" y2="71.063" gradientUnits="userSpaceOnUse"><stop offset="0" style="stop-color:#00365a"/><stop offset=".25" style="stop-color:#00365a"/><stop offset=".571" style="stop-color:#054e80"/><stop offset=".735" style="stop-color:#075b93"/><stop offset=".839" style="stop-color:#054e80"/><stop offset="1" style="stop-color:#054e80"/></linearGradient><path d="M35.4,29.6l26.2,5.7c1.4,0.3,3.5-0.1,4.6-1l0.9-0.7C52.8,22.7,38.6,12.8,22.8,4.1C16,0.1,10-0.2,6,2.1 l25.1,25.1C32.1,28.2,34.1,29.3,35.4,29.6z" class="st7"/><linearGradient id="SVGID_9_" x1="-24.695" x2="24.918" y1="36.09" y2="101.928" gradientUnits="userSpaceOnUse"><stop offset="0" style="stop-color:#00365a"/><stop offset=".25" style="stop-color:#00365a"/><stop offset=".571" style="stop-color:#054e80"/><stop offset=".735" style="stop-color:#075b93"/><stop offset=".839" style="stop-color:#054e80"/><stop offset="1" style="stop-color:#054e80"/></linearGradient><path d="M9.4,74.2L5,73.4c-0.5,2.6-1.1,5.2-1.8,7.8l6.6-4.9C11,75.3,10.8,74.4,9.4,74.2z" class="st8"/><linearGradient id="SVGID_10_" x1="1.12" x2="52.975" y1="15.426" y2="84.24" gradientUnits="userSpaceOnUse"><stop offset="0" style="stop-color:#00365a"/><stop offset=".25" style="stop-color:#00365a"/><stop offset=".571" style="stop-color:#054e80"/><stop offset=".735" style="stop-color:#075b93"/><stop offset=".839" style="stop-color:#054e80"/><stop offset="1" style="stop-color:#054e80"/></linearGradient><path d="M20,65.4c0.7,1.3,2.1,1.6,3.3,0.7l20.5-15.3c1.1-0.8,1.3-2.4,0.2-3.4L29.6,33.1c-1-1-3-2.1-4.4-2.4L3.9,26.1 c1.1,4.4,1.9,9,2.4,13.6L20,65.4z" class="st9"/></g></svg>