<svg xmlns="http://www.w3.org/2000/svg" xmlns:xlink="http://www.w3.org/1999/xlink" id="Layer_1" x="0" y="0" version="1.1" viewBox="0 0 327.9 104.6" xml:space="preserve" style="enable-background:new 0 0 327.9 104.6"><style type="text/css">.st0{fill:#fff}.st1{fill:url(#SVGID_1_)}.st2{fill:url(#SVGID_2_)}.st3{fill:url(#SVGID_3_)}.st4{fill:url(#SVGID_4_)}.st5{fill:url(#SVGID_5_)}.st6{fill:url(#SVGID_6_)}.st7{fill:url(#SVGID_7_)}.st8{fill:url(#SVGID_8_)}.st9{fill:url(#SVGID_9_)}.st10{fill:url(#SVGID_10_)}</style><title>logo-white</title><g><g><path d="M154.8,28.2l13.4,37l13.4-37H193l-19.5,49h-11.4l-19.3-49C142.8,28.2,154.8,28.2,154.8,28.2z" class="st0"/><path d="M209.5,28.2v49h-11.1v-49C198.4,28.2,209.5,28.2,209.5,28.2z" class="st0"/><path d="M257.6,28.2v9.2h-26.3V48H255v9.2h-23.6V68h27v9.2h-38.1v-49C220.3,28.2,257.6,28.2,257.6,28.2z" class="st0"/><path d="M277.2,28.2L301,59.7V28.2h10.5v49h-10.1l-23.7-31.4v31.4h-10.6v-49C267.1,28.2,277.2,28.2,277.2,28.2z" class="st0"/></g></g><g><linearGradient id="SVGID_1_" x1="10.595" x2="65.265" y1="18.156" y2="90.704" gradientUnits="userSpaceOnUse"><stop offset="0" style="stop-color:#00365a"/><stop offset=".25" style="stop-color:#00365a"/><stop offset=".571" style="stop-color:#054e80"/><stop offset=".735" style="stop-color:#075b93"/><stop offset=".839" style="stop-color:#054e80"/><stop offset="1" style="stop-color:#054e80"/></linearGradient><path d="M47.1,79.6l7.4,13.8C60.3,89.8,66,86,71.6,82l-23.2-4.3C47,77.5,46.4,78.3,47.1,79.6z" class="st1"/><linearGradient id="SVGID_2_" x1="-8.669" x2="43.745" y1="35.617" y2="105.173" gradientUnits="userSpaceOnUse"><stop offset="0" style="stop-color:#00365a"/><stop offset=".25" style="stop-color:#00365a"/><stop offset=".571" style="stop-color:#054e80"/><stop offset=".735" style="stop-color:#075b93"/><stop offset=".839" style="stop-color:#054e80"/><stop offset="1" style="stop-color:#054e80"/></linearGradient><path d="M38.9,76c-0.3-0.1-1.4,0.6-2.6,1.4l-16.1,12c-1.6,12.2,8.5,19.1,22.1,11.1c2.6-1.4,5.2-2.9,7.7-4.4l-9.4-17.7 C39.9,77.1,39.1,76.1,38.9,76z" class="st2"/><linearGradient id="SVGID_3_" x1="48.801" x2="99.978" y1="-1.955" y2="65.959" gradientUnits="userSpaceOnUse"><stop offset="0" style="stop-color:#00365a"/><stop offset=".25" style="stop-color:#00365a"/><stop offset=".571" style="stop-color:#054e80"/><stop offset=".735" style="stop-color:#075b93"/><stop offset=".839" style="stop-color:#054e80"/><stop offset="1" style="stop-color:#054e80"/></linearGradient><path d="M84.9,41.4l-9.5,7c-1.1,0.8-1.3,2.4-0.2,3.4l15.9,15.9c10-7.4,11.3-17.5,4.8-25.9l-6.4-1.4 C88.1,40.1,86,40.5,84.9,41.4z" class="st3"/><linearGradient id="SVGID_4_" x1="23.411" x2="75.439" y1="14.436" y2="83.48" gradientUnits="userSpaceOnUse"><stop offset="0" style="stop-color:#00365a"/><stop offset=".25" style="stop-color:#00365a"/><stop offset=".571" style="stop-color:#054e80"/><stop offset=".735" style="stop-color:#075b93"/><stop offset=".839" style="stop-color:#054e80"/><stop offset="1" style="stop-color:#054e80"/></linearGradient><path d="M71,54.9c-1-1-2.8-1.1-3.9-0.3L46.1,70.2c-1.1,0.8-0.9,1.8,0.5,2l30.9,5.7c3.2-2.3,6.3-4.7,9.4-7.1L71,54.9z" class="st4"/><linearGradient id="SVGID_5_" x1="41.303" x2="94.374" y1=".522" y2="70.95" gradientUnits="userSpaceOnUse"><stop offset="0" style="stop-color:#00365a"/><stop offset=".25" style="stop-color:#00365a"/><stop offset=".571" style="stop-color:#054e80"/><stop offset=".735" style="stop-color:#075b93"/><stop offset=".839" style="stop-color:#054e80"/><stop offset="1" style="stop-color:#054e80"/></linearGradient><path d="M77.7,37.8l-18.5-4c-1.4-0.3-1.7,0.3-0.7,1.3l9.3,9.3c1,1,2.8,1.1,3.9,0.3l6.4-4.8 C79.3,39.1,79.1,38.1,77.7,37.8z" class="st5"/><linearGradient id="SVGID_6_" x1="24.093" x2="76.617" y1="13.524" y2="83.226" gradientUnits="userSpaceOnUse"><stop offset="0" style="stop-color:#00365a"/><stop offset=".25" style="stop-color:#00365a"/><stop offset=".571" style="stop-color:#054e80"/><stop offset=".735" style="stop-color:#075b93"/><stop offset=".839" style="stop-color:#054e80"/><stop offset="1" style="stop-color:#054e80"/></linearGradient><path d="M41.3,25.2L21.8,5.7c-2.4,4-2.5,10,0.6,16.8l18.1,3.9C42,26.8,42.3,26.2,41.3,25.2z" class="st6"/><linearGradient id="SVGID_7_" x1="2.325" x2="53.967" y1="28.73" y2="97.263" gradientUnits="userSpaceOnUse"><stop offset="0" style="stop-color:#00365a"/><stop offset=".25" style="stop-color:#00365a"/><stop offset=".571" style="stop-color:#054e80"/><stop offset=".735" style="stop-color:#075b93"/><stop offset=".839" style="stop-color:#054e80"/><stop offset="1" style="stop-color:#054e80"/></linearGradient><path d="M35.1,68L26.6,52c0,5.4-0.4,10.9-1.1,16.2l8.3,1.5C35.1,70.1,35.7,69.2,35.1,68z" class="st7"/><linearGradient id="SVGID_8_" x1="42.665" x2="96.162" y1=".07" y2="71.063" gradientUnits="userSpaceOnUse"><stop offset="0" style="stop-color:#00365a"/><stop offset=".25" style="stop-color:#00365a"/><stop offset=".571" style="stop-color:#054e80"/><stop offset=".735" style="stop-color:#075b93"/><stop offset=".839" style="stop-color:#054e80"/><stop offset="1" style="stop-color:#054e80"/></linearGradient><path d="M55,29.6l26.2,5.7c1.4,0.3,3.5-0.1,4.6-1l0.9-0.7C72.4,22.7,58.1,12.8,42.3,4.1c-6.8-4-12.8-4.2-16.8-2 l25.1,25.1C51.6,28.2,53.6,29.3,55,29.6z" class="st8"/><linearGradient id="SVGID_9_" x1="-5.17" x2="44.443" y1="36.09" y2="101.928" gradientUnits="userSpaceOnUse"><stop offset="0" style="stop-color:#00365a"/><stop offset=".25" style="stop-color:#00365a"/><stop offset=".571" style="stop-color:#054e80"/><stop offset=".735" style="stop-color:#075b93"/><stop offset=".839" style="stop-color:#054e80"/><stop offset="1" style="stop-color:#054e80"/></linearGradient><path d="M28.9,74.2l-4.3-0.8c-0.5,2.6-1.1,5.2-1.8,7.8l6.6-4.9C30.5,75.3,30.3,74.4,28.9,74.2z" class="st9"/><linearGradient id="SVGID_10_" x1="20.644" x2="72.499" y1="15.426" y2="84.24" gradientUnits="userSpaceOnUse"><stop offset="0" style="stop-color:#00365a"/><stop offset=".25" style="stop-color:#00365a"/><stop offset=".571" style="stop-color:#054e80"/><stop offset=".735" style="stop-color:#075b93"/><stop offset=".839" style="stop-color:#054e80"/><stop offset="1" style="stop-color:#054e80"/></linearGradient><path d="M39.5,65.4c0.7,1.3,2.1,1.6,3.3,0.7l20.5-15.3c1.1-0.8,1.3-2.4,0.2-3.4L49.2,33.1c-1-1-3-2.1-4.4-2.4 l-21.4-4.6c1.1,4.4,1.9,9,2.4,13.6L39.5,65.4z" class="st10"/></g></svg>